<?xml version="1.0" encoding="UTF-8"?>
<svg version="1.1" viewBox="0 0 1116 1084" width="279" height="271" xmlns="http://www.w3.org/2000/svg">
<path transform="translate(309,304)" d="m0 0h123l1 2-7 20-7 22-6 26-3 22-1 25 2 20 5 21 6 15 9 16 10 13 15 15 15 11 9 5-7-11-8-13-11-21-9-24-5-20-2-12-1-26 2-21 5-22 6-18 9-20 7-13 7-11 36-1h90v2l-10 6-14 10-13 11-10 9-12 12-9 11-9 13-8 14-7 16-5 17-3 18v29l3 18 3-28 4-18 7-21 8-16 7-11 11-14 16-16 13-10 16-10 21-11 24-9 20-6 31-7 35-5 38-3 29-1 2 4-1 119-10-3-34-9-23-4-10-1h-39l-19 3-17 5-16 6-15 8-15 10-16 13-15 14-5 6 11-7 16-8 17-8 22-8 20-5 22-3h28l23 3 20 5 20 7 18 8 15 8 2 2v122l-4-2-10-13-11-13-11-12-7-8-14-13-14-11-15-10-16-8-12-5-18-5-16-2h-19l-16 2-11 3 18 3 29 8 22 8 23 11 13 8 16 12 12 11 8 8 10 13 10 16 8 16 7 18 6 20 5 24 4 30 3 45 1 34-2 1h-121l-1-3 6-15 10-31 6-26 3-21v-33l-3-18-5-17-10-21-12-16-2-4h-2l-5-5-12-11-16-11-7-4 6 7 9 11 10 17 8 19 5 19 3 21v31l-2 17-5 25-6 22-11 28-9 18-7 1h-115l-2-2 9-10 11-12 9-10 7-8 12-14 13-16 12-17 9-15 7-14 6-16 4-17 1-8v-24l-2-12-7 26-10 28-12 25-12 19-9 12-12 14-8 8-11 9-13 10-15 9-16 8-19 8-22 7-27 6-29 4-30 2h-35v-123l6 1 30 9 26 5 17 2h29l22-3 19-5 16-6 23-12 14-10 13-11 13-12 4-5-15 10-23 12-15 6-21 6-19 3-12 1h-17l-20-2-24-5-33-11-26-12-6-3-1-2v-123l7 6 34 34 8 7 13 11 18 13 18 10 15 7 21 6 13 2h17l16-3h5v-2h-9l-23-4-21-6-20-8-17-9-14-10-14-12-8-8-9-11-11-16-12-22-9-23-7-23-6-29-4-30-2-32v-33zm237 224-8 4-3 4v10l3 5 6 3h8l7-6 1-2v-9l-4-6-7-3z" fill="#fff"/>
<path transform="translate(531,33)" d="m0 0h35l30 2 32 4 27 5 32 8 36 12 21 8 20 9 19 9 23 13 21 13 23 16 18 14 14 12 8 7 10 9 25 25 7 8 11 13 13 17 11 15 13 20 9 15 10 18 13 26 12 29 8 23 8 27 7 29 5 31 3 24 2 39v18l-2 36-5 39-7 34-9 32-9 27-11 26-14 29-11 20-11 18-8 12-12 17-11 14-11 13-7 8-9 10-30 30-8 7-17 14-13 10-17 12-20 13-21 12-23 12-21 10-31 12-27 9-36 9-21 4-27 4-33 3h-56l-25-2-30-4-36-7-32-9-27-9-29-12-25-12-19-10-23-14-15-10-18-13-16-13-11-9-13-12-12-11-10-10-7-8-13-14-11-14-14-18-18-27-13-22-14-27-9-19-11-28-10-30-8-31-6-31-4-32-2-28v-42l3-38 5-33 8-36 9-30 7-20 10-24 8-18 10-19 13-23 22-33 13-17 8-10 12-14 14-15 4-5h2l2-4h2l1-3 8-7 14-13 11-9 15-12 18-13 17-11 15-9 18-10 21-11 25-11 32-12 31-9 29-7 36-6 30-3zm-3 10-29 2-26 3-28 5-25 6-31 9-27 10-30 13-17 9-11 6-18 10-21 14-14 10-16 12-14 12-20 18-22 22-7 8-12 14-7 9-12 16-14 21-13 21-7 12-8 16-12 26-12 31-10 32-7 29-5 28-3 23-2 25v50l3 34 5 33 8 36 11 35 10 26 8 19 8 16 11 21 13 21 8 12 12 17 11 14 9 11 9 10 7 8 9 9 3 4h2l1 3 8 7 9 9 11 9 9 8 17 13 18 13 18 11 15 9 24 13 26 12 23 9 36 12 32 8 35 6 26 3 13 1h62l33-3 36-6 34-8 35-11 30-12 20-9 19-10 21-12 25-16 19-14 22-18 11-10 8-7 27-27 7-8 11-13 13-17 13-18 11-17 15-26 8-15 7-16 7-15 11-30 8-26 7-28 5-28 3-20 3-43v-26l-2-34-4-31-5-28-9-35-13-38-12-28-12-25-13-23-15-23-10-14-9-12-11-14-9-10-7-8-13-13-3-4h-2v-2l-8-7-9-9-11-9-13-11-16-12-16-11-17-11-21-12-27-14-25-11-28-10-22-7-32-8-27-5-21-3-39-3z" fill="#fff"/>
<path transform="translate(521,175)" d="m0 0h52l29 3 27 5 29 8 28 10 26 12 19 10 21 13 18 13 16 13 12 11 10 9 7 7 7 8 9 10 13 17 14 20 11 19 12 23 11 26 8 24 8 32 4 26 2 19 1 31-1 25-4 33-5 25-8 28-9 24-9 20-13 25-11 17-12 17-13 16-9 11-27 27-11 9-12 10-14 10-17 11-21 12-22 11-26 10-21 7-28 7-24 4-29 3h-44l-36-4-30-6-27-8-20-7-27-12-21-11-24-15-16-12-14-11-15-14-9-8v-2l-3-1-7-8-12-13-13-17-13-19-11-18-14-27-10-24-9-27-7-28-4-24-3-31v-38l2-23 4-26 6-27 12-36 11-25 14-27 12-19 12-17 13-16 11-12 7-8 15-15 11-9 13-11 17-12 19-12 18-10 27-13 27-10 24-7 26-6 28-4zm18 9-30 2-27 4-23 5-24 7-22 8-25 11-23 13-15 9-18 13-16 13-24 22-14 15v2h-2l-11 14-12 16-14 22-13 24-12 27-12 36-6 26-4 24-2 22v41l2 23 5 30 7 28 8 24 13 30 11 21 15 24 13 17 11 14 15 16 17 17 8 7 16 13 20 14 15 9 18 10 25 12 30 11 25 7 20 4 30 4 16 1h37l31-3 23-4 28-7 24-8 28-12 23-12 18-11 17-12 13-10 14-12 15-14 10-10 7-8 14-17 13-18 11-18 10-18 11-23 9-24 6-19 6-25 4-25 2-15 1-19v-25l-2-26-4-27-6-26-7-22-8-22-10-22-12-22-14-22-14-18-9-11-9-10-24-24-11-9-16-13-18-12-13-8-10-6-16-8-28-12-31-10-31-7-18-3-21-2-21-1z" fill="#fff"/>
<path transform="translate(941,562)" d="m0 0 16 4 58 17 5 2-1 2-27 9-30 11-8 3 14 12 33 27 6 5-1 2-36-2-35-2-10-1 1-9 2-4 42 3 4 1v-2l-4-2-14-12-13-11-10-8v-2l28-10 21-8h2v-2l-8-1-36-10-2-3z" fill="#fff"/>
<path transform="translate(871,218)" d="m0 0h9l9 2 11 6 6 5 7 10 4 12v14l-4 13-7 9-9 8-10 4-15 2-11-2-12-6-9-9-7-14-1-5v-13l3-10 6-10 9-9 11-5zm0 12-10 3-10 8-6 12-1 4v9l3 9 9 10 10 5h16l10-5 5-4 6-10 2-7v-9l-3-9-6-8-9-6-7-2z" fill="#fff"/>
<path transform="translate(157,589)" d="m0 0h3l-2 4-12 18-13 18-12 17-3 4 9-1 37-8 5 1 2 7v4l-36 8-39 8-6 1 2-5 11-15 11-16 12-17 6-9-27 6-20 4h-4l-3-8 1-4 72-15z" fill="#fff"/>
<path transform="translate(809,150)" d="m0 0 4 1 13 10 7 6 7 10 3 8 1 11-2 10-5 10-9 10-7 5-14 4h-9l-10-3-12-7-14-11 1-6 14-17 20-26 11-14zm3 16-14 18-11 14-9 11 2 4 6 5 8 4 4 1h10l10-5 9-10 4-9v-13l-5-10-7-7-5-3z" fill="#fff"/>
<path transform="translate(217,217)" d="m0 0h11l10 3 11 7 8 9 5 11 1 3v16l-4 9-6 9-12 14-4 2-14-12-10-9-11-9-10-9-11-9-2-2 1-5 9-11 9-9 14-7zm-1 12-10 4-8 7-4 6 13 12 11 9 10 9 9 7 4-2 7-10 3-7v-12l-5-10-7-7-10-5-4-1z" fill="#fff"/>
<path transform="translate(354,114)" d="m0 0h10l11 3 9 7 6 7 5 10 2 8v14l-4 11-7 9-13 8-15 7-5 1-3-4-28-63-1-6 17-8 9-3zm1 11-12 3-6 3v4l13 29 8 18 4 2 11-6 7-6 4-7 1-11-3-11-5-8-8-7-10-3z" fill="#fff"/>
<path transform="translate(745,115)" d="m0 0 5 1 16 8 8 7 4 8v10l-4 9-8 7-7 2-10-1 2 8 4 23v9l-10-1-3-3-5-40-3 3-13 26-9-3-2-1 1-6 20-39 11-22zm7 15-5 8-6 11 2 4 7 3h7l7-6 2-5-1-6-5-6-7-3z" fill="#fff"/>
<path transform="translate(121,365)" d="m0 0h7l9 3 6 5 4 9 1 8 35-11 3 1 1 10-2 2-40 11-1 2 12 3 19 7 1 3-3 9-9-2-59-20-9-4 3-10 5-13 6-8 4-3zm1 12-5 3-4 5-2 4v4l16 6 7 2 2-4 1-8-2-7-5-4z" fill="#fff"/>
<path transform="translate(482,75)" d="m0 0h22l7 4 6 8 2 5v11l-5 8-6 5-3 1 2 4 11 12 11 11 1 4-8 5-5-2-12-13-9-11-6-6 2 19 1 15-12 2-5-37-4-34v-9l1-1zm4 11-1 4 2 18 1 3 8-1 8-5 3-5-1-7-4-6-2-1z" fill="#fff"/>
<path transform="translate(161,676)" d="m0 0h10l7 3 7 6 7 14 1 10-3 9-7 8-10 6-26 12-19 8-4-1-3-6 1-5 17-7 28-13 9-6 3-4v-9l-3-6-1-3-5-2h-9l-15 5-26 12-10 4-4-1-4-7 1-3 25-11 23-10z" fill="#fff"/>
<path transform="translate(685,89)" d="m0 0h3l11 53 6 30v7h-7l-4-1-3-12-4-20v-4l-14-3-12-3-5 1-7 8-9 10-5 7-10-4 2-5 7-8 24-26 13-14 7-8zm-6 22-11 12-1 3 8 3 9 2-1-13-2-7z" fill="#fff"/>
<path transform="translate(923,653)" d="m0 0 7 6 15 16 9 11 13 14 7 8 11 13-2 2-82 8h-8l1-11 1-1 33-3 3-1 9-23v-5l-14-15-7-8-2-4zm26 45-5 12-1 5h12l8-1-2-4-9-11z" fill="#fff"/>
<path transform="translate(264,162)" d="m0 0 6 2 36 17 39 18 2 3-6 8-5-1-27-13-5 1-14 11-5 4v7l5 25v5l-6 3h-4l-3-13-12-67zm13 18 2 17 1 4 5-2 11-9-2-3z" fill="#fff"/>
<path transform="translate(924,422)" d="m0 0 9 2 66 19 13 5v2l-11 8-21 16-15 12-16 12-7 5h-4l-3-7 1-4 13-10 12-9 2-3-5-28-10-2-25-7-1-4zm45 24 3 19 7-4 10-7v-3l-17-5z" fill="#fff"/>
<path transform="translate(977,356)" d="m0 0 5 1 9 24 1 4v9l-4 8-8 7-5 2-9 1-9-2-7-5-8-13-2-7-28 11-3-1-4-8v-2l49-20zm-5 15-20 8-2 3 6 12 5 5 6 1 8-3 5-6-1-11-3-8z" fill="#fff"/>
<path transform="translate(91,423)" d="m0 0h10l1 5-5 20v3l15 4 5 1 4-21 1-1 9 1 2 1-1 9-2 9v5l22 5 1-8 3-13 2-10 7 2 4 2v7l-8 35-8-1-70-16-1-3 8-35z" fill="#fff"/>
<path transform="translate(148,302)" d="m0 0 5 1 3 5-1 4-11 6-4 5v7l3 5 3 2 7-1 6-3 11-8 8-4h11l9 4 7 8 3 8v7l-3 8-6 9-14 7-4-1-4-10 12-5 3-1 3-6-1-9-4-4-2-1-9 1-9 6-8 6-8 3h-8l-8-3-5-4-4-6-1-3v-14l4-8 7-7z" fill="#fff"/>
<path transform="translate(80,478)" d="m0 0 5 2 20 10 22 12 23 12 9 5v2l-31 10-51 16h-3v-10l4-4 46-14 6-1v-2l-6-2-33-17-11-6-1-1v-10z" fill="#fff"/>
<path transform="translate(605,74)" d="m0 0h11l11 2 1 1v12l-9-2h-12l-9 3-8 7-4 8-1 3v15l5 10 8 7 8 3 16 2-3 10-1 2-12-1-13-4-10-6-8-11-4-11v-17l3-10 7-10 9-8 9-4z" fill="#fff"/>
<path transform="translate(703,916)" d="m0 0 7 1-2 10-4 16 1 5 16 10 9 6-2 6-4 1-15-9-9-6-2 14-3 13-1 1-7-1-1-4 6-26v-3l-15-8-9-7 4 16 9 31-1 5-7 2-3-8-12-43v-6l1-1h8l3-2 6 1 16 10 4 2 1-8 4-17z" fill="#fff"/>
<path transform="translate(521,946)" d="m0 0 4 2 6 10 8 15 6 12 2 5 3-3 16-27 8-12 2 1 4 46v11l-1 1h-8l-1-5-2-28-7 10-8 13-6 8-3-3-15-28-1-1-1 2-4 29-1 1h-6l-2-2 2-16 5-33z" fill="#fff"/>
<path transform="translate(418,928)" d="m0 0h2l9 29 5 18 4-2 14-15 12-13 4-5 3 1-3 23-3 27-2 7-2 1-6-2-1-3 4-28 1-2-5 2-2 4-11 11-7 8-3 2-2-2-8-28-3-6-8 24-3 7-5-1-2-1 1-6 11-33 5-16z" fill="#fff"/>
<path transform="translate(285,854)" d="m0 0h2l-1 16-4 35 36-16 10-5 1 3-9 16-16 28-3 5-5-1-3-3 1-5 9-15 5-9-6 2-25 11-4 1v-10l3-28-7 6-9 11-3 4h-2v2h-5l-3-5 11-12 9-10 15-16z" fill="#fff"/>
<path transform="translate(987,508)" d="m0 0h31l1 11-1 1-54 2h-14l1 34-10-1-2-2-1-10-1-32 1-1 17-1z" fill="#fff"/>
<path transform="translate(811,853)" d="m0 0h8l6 3 6 7v10l-2 4v3l25 7 1 4-5 5-11-3-18-5 13 17-1 4-3 3-5-2-10-13-14-18-9-12 1-3 13-9zm0 9-6 3 1 5 7 9 4 1 5-5 1-7-5-6z" fill="#fff"/>
<path transform="translate(849,815)" d="m0 0 5 3 5 5 6 7 3 2v2l4 2 10 12 3 8-2 10-9 10-7 3-10-1-10-6-12-12-7-8-7-7 3-6 4-1 28 28 9 3 7-4 2-5-1-6-4-6-9-10-15-15 1-5z" fill="#fff"/>
<path transform="translate(646,934)" d="m0 0 7 1 1 3-10 24 1 5 16 13 5 5v4l-3 3-5-2-11-9-6-6h-2l-9 24-5 1-3-3 3-12 6-15 1-4-4-2-10-8-8-7 1-6 4-1 14 11 6 5 2-3 8-20z" fill="#fff"/>
<path transform="translate(357,899)" d="m0 0h1v28l-1 38-4 1-5-3v-25l-6-4-10-5-6 1-15 11-5 1-3-2 1-4 11-9 21-14 16-11zm-10 16-9 6v2l9 5h2l1-2v-11z" fill="#fff"/>
<path transform="translate(751,894)" d="m0 0 9 1 7 6 4 9-1 7-4 7-9 7-2 1 2 5 7 14-2 4-6 1-10-17-15-26-3-5 2-4 15-8zm-1 9-10 5 1 4 6 10 2 2 6-1 5-4 1-2v-7l-4-6z" fill="#fff"/>
<path transform="translate(788,870)" d="m0 0 3 1 2 3-1 4-12 7-3 1 3 7 3 5 3 1 12-7 4 2 2 4-10 7-3 2 2 6 4 7 6-1 11-7 2-2 4 1 1 6-8 7-16 10-3-1-15-23-10-16-5-7 1-3 19-12z" fill="#fff"/>
<path transform="translate(548,69)" d="m0 0 4 2 1 52v27l-2 1h-10l-1-6-1-74 1-1z" fill="#fff"/>
<path transform="translate(162,267)" d="m0 0 5 2 16 11 19 14 18 13 9 6-5 10-3 1-15-11-36-26-12-9-1-2z" fill="#fff"/>
<path transform="translate(145,561)" d="m0 0h12l1 11-1 1-38 3-30 2h-12l-2-9 1-3 52-4z" fill="#fff"/>
<path transform="translate(497,944)" d="m0 0h9l8 2 2 3v6l-8-1h-9l-8 3-5 5-3 8v9l3 7 5 5 5 3 13 2-1 7-1 1h-9l-10-3-8-6-6-9-1-3v-15l3-9 4-6 6-5z" fill="#fff"/>
<path transform="translate(247,817)" d="m0 0 7 4-1 4-6 5-14 14h-2v2l-8 7-4 2 1 4 10 11 4 3-1 4-3 3-5-2-19-19v-4h2l2-4 8-7 10-10 8-7z" fill="#fff"/>
<path transform="translate(584,945)" d="m0 0h5l7 48 13-1h12l1 2-1 5-8 2-20 3h-5l-2-8-6-45 1-5z" fill="#fff"/>
<path transform="translate(271,842)" d="m0 0 6 1 2 4-11 13-7 8-9 10-10 12-5-1-3-4 7-9 10-11 9-11 7-7z" fill="#fff"/>
<path transform="translate(827,809)" d="m0 0h3l1 18-3 1-2-1-2-8v-7z" fill="#fff"/>
<path transform="translate(386,969)" d="m0 0h5l2 2-1 6-1 2-5-1-3-3 2-5z" fill="#fff"/>
<path transform="translate(177,812)" d="m0 0 5 3 1 3-4 4-6-1-1-4z" fill="#fff"/>
<path transform="translate(927,796)" d="m0 0 6 1 1 6-3 3-5-2-2-4z" fill="#fff"/>
<path transform="translate(737,955)" d="m0 0 5 1 2 3-1 4-6 2-3-4 2-5z" fill="#fff"/>
</svg>
