<?xml version="1.0" encoding="UTF-8"?>
<svg version="1.1" viewBox="0 0 920 911" width="920" height="911" xmlns="http://www.w3.org/2000/svg">
<path transform="translate(411,265)" d="m0 0 85 1 2 2-11 9-10 8-12 11-11 11-12 16-11 21-5 16-2 11-1 17 1 18 1 1 2-6 3-19 7-21 9-17 8-11 9-10 8-8 12-9 15-9 21-10 24-8 25-6 27-4 19-2h38l1 1v95l-8-1-21-6-20-4-21-2h-12l-20 2-17 4-20 8-17 10-11 9-10 9-4 5 9-2 17-9 22-8 23-5 10-1h23l21 3 19 5 24 10 10 6 3 5v93l-4-1-6-8-9-11-11-12-15-15-17-13-16-9-15-6-18-4-16-1-19 2-9 1v2l10 1 30 8 21 8 17 9 14 10 14 12 10 11 10 14 10 19 6 16 5 19 4 21 3 25 1 15v41h-97l1-6 11-33 4-16 3-22v-26l-3-18-7-19-9-15-12-14-12-10-10-6-5-2v2l4 2 10 14 8 16 5 14 4 20v34l-4 25-6 22-9 24-7 13-3 2h-96l2-4 11-12 7-8 9-10 9-11 10-12 13-19 9-16 6-17 3-15v-18l-2-11-6 21-10 25-11 21-12 17-11 12-11 11-19 14-25 13-19 7-28 7-30 4-15 1h-30l-1-1v-97l7 1 24 7 16 3 9 1h35l17-3 21-7 19-10 16-12 11-10-4 1-17 8-24 8-15 3-8 1h-25l-20-3-19-5-22-8-19-9-3-4v-63l1-23 1-9 3 1 7 8 9 10 16 15 17 14 19 12 19 9 15 4 6 1h24l6-2-6-2-22-5-18-6-16-8-14-9-13-11-9-9-11-15-8-14-9-19-7-21-6-26-3-22-2-34v-21l1-2h98l-1 6-9 29-5 21-2 16v32l3 17 7 19 7 12 7 9 10 11 16 12 3 1-2-6-10-17-9-19-6-19-3-15-1-9v-22l3-20 6-20 8-19 9-15 6-4zm46 181-5 5-1 2v8l4 5 2 1h11l4-4 1-2v-8l-3-5-3-2z" fill="#068731"/>
<path transform="translate(428,21)" d="m0 0h67l54 9 26 6 24 7 20 7 30 13 27 14 21 13 19 13 13 10 11 9 14 12 8 8 8 7 7 8 12 12 9 11 13 16 11 16 10 15 13 22 9 17 11 25 9 24 6 19 7 28 7 39 3 19v72l-3 12-3 25-6 29-9 32-10 27-10 23-14 28-12 20-15 22-13 17-11 13-9 10-7 8-17 17-8 7-15 13-20 15-21 14-15 9-18 10-23 11-25 10-30 10-33 8-30 5-29 3h-53l-9 1-6-2-42-6-28-6-24-7-21-7-26-11-16-8-21-11-21-13-14-10-11-8-14-11-12-11-8-7-8-8-5-4-7-8-7-7-9-11-7-8-13-17-16-24-14-24-15-30-10-25-11-33-8-34-3-19-3-26-2-9v-63l2-6 5-37 6-29 7-25 8-24 11-26 8-17 11-20 13-21 12-17 10-13 9-11 12-14 11-11 7-8 8-7 13-12 11-9 20-15 21-14 15-9 26-14 30-13 34-12 32-8 23-4 27-4zm28 16-34 2-30 4-28 6-19 5-30 10-26 11-19 9-23 13-27 18-12 9-14 11-10 9-8 7-15 14-7 8-10 11-9 11-11 14-7 10-13 20-12 21-12 24-11 27-11 34-8 36-4 29-2 22v45l3 32 4 26 6 27 8 26 10 28 13 28 10 19 13 21 11 16 12 16 12 14 9 10 11 12 16 15 10 9 14 11 13 10 15 10 13 8 16 9 21 11 28 12 33 11 28 7 28 5 26 3 13 1h44l40-4 22-4 26-6 29-9 28-11 29-14 23-13 15-10 17-12 14-11 10-9 8-7 13-12 10-10 7-8 12-14 13-17 12-17 15-25 12-23 13-29 12-36 8-32 5-31 2-18 1-17v-39l-2-27-5-33-7-30-8-25-10-27-13-28-15-27-16-24-12-16-9-11-12-14-15-16-16-15-11-9-13-11-17-12-15-10-15-9-18-10-23-11-26-10-21-7-26-7-33-6-28-3-25-1z" fill="#068731"/>
<path transform="translate(453,47)" d="m0 0h18l33 2 29 4 28 6 31 9 29 11 29 14 17 9 19 12 17 12 13 10 13 11 20 18 11 11 7 8 13 15 12 16 10 14 13 21 10 18 14 29 10 26 9 30 7 32 4 28 2 29v28l-2 29-5 33-6 27-10 33-11 27-12 25-9 17-12 19-13 19-14 17-9 11-7 7-7 8-11 11-8 7-14 12-13 10-17 12-19 12-18 10-16 8-22 10-34 12-26 7-30 6-24 3-29 2h-27l-28-2-29-4-32-7-26-8-24-9-24-11-25-13-24-15-19-14-11-9-14-12-13-12-13-13-7-8-13-15-12-16-20-30-13-23-13-28-10-26-9-29-7-31-4-26-2-20v-59l4-33 5-26 7-26 9-27 11-26 12-24 13-22 13-19 12-16 11-13 7-8 9-10 20-20 11-9 9-8 16-12 24-16 15-9 23-12 19-9 24-9 25-8 24-6 28-5 28-3zm-15 7-38 4-26 5-27 7-30 10-27 12-22 11-17 10-21 14-12 9-14 11-11 10-8 7-21 21-9 11-11 13-13 18-10 15-10 17-12 23-10 22-10 28-9 32-6 31-3 26-1 17v36l2 26 5 33 7 30 8 25 9 24 12 26 12 22 12 19 13 18 13 16 9 11 9 9 7 8 15 14 10 9 14 11 18 13 20 13 18 10 16 8 20 9 24 9 23 7 25 6 30 5 19 2 18 1h29l37-3 29-5 25-6 26-8 28-11 29-14 21-12 11-7 17-12 12-9 14-12 10-9 4-3v-2l4-2 12-12 7-8 13-15 15-20 10-15 11-18 14-27 9-20 11-30 7-25 6-29 3-21 2-25v-42l-2-25-4-27-6-27-7-25-9-25-11-25-10-20-12-20-10-15-11-15-8-10-11-13-12-13-18-18-11-9-13-11-19-14-19-12-21-12-22-11-27-11-24-8-32-8-29-5-32-3z" fill="#068731"/>
<path transform="translate(441,161)" d="m0 0h44l25 3 25 5 26 8 27 11 23 12 17 11 11 8 10 8 14 12 18 18 18 22 16 24 12 22 9 20 11 33 6 26 3 21 1 11v44l-3 25-6 27-7 23-10 24-11 22-12 19-10 14-11 13-7 8-11 12-13 12-16 13-13 9-21 13-17 9-24 10-24 8-26 6-21 3-12 1h-41l-25-3-25-5-24-7-21-8-25-12-20-12-17-12-11-9-14-12-14-14-9-11-10-12-13-19-9-15-10-19-11-27-7-23-5-23-3-21-1-11v-41l3-26 5-24 6-21 7-20 16-33 13-21 13-17 9-11 12-13 11-11 11-9 12-10 24-16 18-10 19-9 24-9 25-7 20-4zm3 8-33 4-26 6-27 9-18 8-16 8-17 10-17 12-11 9-14 12-16 16-7 8-14 18-11 17-12 21-11 25-8 24-6 25-4 28-1 15v22l2 25 4 24 6 24 8 23 8 18 12 23 12 18 13 17 10 11 7 8 11 11 11 9 12 10 21 14 16 9 25 12 22 8 32 8 19 3 25 2h21l24-2 20-3 25-6 27-9 20-9 19-10 19-12 17-13 15-13 19-19 9-11 10-13 10-15 12-21 9-19 8-21 7-25 5-27 2-19v-39l-2-22-5-25-6-22-9-24-12-25-11-18-12-17-8-10-12-14-18-18-11-9-17-13-19-12-20-11-26-11-26-8-22-5-21-3-12-1z" fill="#068731"/>
<path transform="translate(774,490)" d="m0 0 11 1 47 10 4 2v7l-3 11-6 1-30 2-4 1 10 6 21 11 3 4-1 10-2 6-11-1-47-10-3-1v-7l2-4 10 1 25 5 2 1-1-3-24-12-9-5v-8l5-5 33-1v-2l-9-3-21-5-3-2v-7z" fill="#068731"/>
<path transform="translate(147,500)" d="m0 0 3 1 2 4v7l-6 8-10 10-9 11-3 3 8-1 20-4h7l1 4v7l-55 12h-6l-2-4v-7l6-8 10-10 9-11 2-3-15 2-12 3h-6l-3-7v-4l13-3z" fill="#068731"/>
<path transform="translate(643,125)" d="m0 0 5 1 21 13 10 9 2 4v10l-5 8-5 4-3 1h-11l1 6 1 26-2 1-8-5-4-8-1-22-3-6-3-2h-4l-10 15-3 4-6-2-5-5 16-26 12-19zm6 15-7 10-1 4 10 7 8 4 5-1 4-5v-6l-8-7-10-6z" fill="#068731"/>
<path transform="translate(419,80)" d="m0 0h30l8 5 3 7v11l-4 6-5 4-4 1 5 5 10 12 5 7v3l-3 1h-9l-8-7-8-11-6-5-10-1 1 25-2 2h-10l-1-2-4-56 1-5zm10 10-8 1v12l2 5 19-2 4-2 1-2v-8l-5-4z" fill="#068731"/>
<path transform="translate(129,292)" d="m0 0 10 1 6 4 4 6 2 9h4l15-4 11-1v7l-4 6-9 3-14 3-7 4-3 5v2l22 10-1 7-2 4-7-1-30-12-22-9 1-6 11-27 6-8zm-1 14-4 5-6 16 12 6h4l6-15v-8l-4-4z" fill="#068731"/>
<path transform="translate(706,163)" d="m0 0 4 2 9 11 10 13 3 6v12l-4 10-7 9-8 7-9 4h-11l-8-3-11-9-13-13v-3l3-1 7-8 16-17 7-7 7-8zm-1 19-16 17-11 12v3l5 5 8 6h9l9-5 7-7 4-9v-9l-5-7-8-6z" fill="#068731"/>
<path transform="translate(220,170)" d="m0 0h10l11 4 9 7 6 9 4 11v10l-5 10-11 11-8 7-4 3-14-14-7-8-15-16-7-8 6-7 14-14 8-4zm1 12-9 5-6 6 1 4 11 12 14 15h4l8-7 4-7v-8l-6-9-8-8-5-3z" fill="#068731"/>
<path transform="translate(745,227)" d="m0 0h7l10 3 8 6 6 7 3 7 1 5v7l-3 9-6 9-8 7-11 5-9 1-9-2-9-6-8-9-3-8-1-10 3-10 7-9 7-6 8-4zm4 12-9 3-9 7-5 8-1 8 4 9 7 5 3 1h7l9-4 8-7 5-7v-11l-6-8-5-3z" fill="#068731"/>
<path transform="translate(338,99)" d="m0 0h13l9 4 7 8 5 10 3 11v8l-4 9-10 8-12 6-18 6-4-10-14-43-1-7 12-6zm-1 11-10 5 2 9 10 30 2 1 12-4 6-4 2-3 1-11-2-9-5-8-7-6z" fill="#068731"/>
<path transform="translate(100,353)" d="m0 0 6 1 1 1v7l-6 26 8 2h5l7-27 1-2 7 1 2 1-1 10-4 21 15 3 4-13 4-18 3-2 7 1 1 4-9 40-2 3-9-1-49-11-3-1 1-10 8-34z" fill="#068731"/>
<path transform="translate(160,237)" d="m0 0h7l6 2-1 6-4 4-10 2-5 7-1 7 2 2 7-1 14-12 10-5 9 1 9 6 4 8v8l-4 11-7 9-6 4-3 1h-11l-6-2 1-6 4-4 11-1 5-4 3-7v-6l-3-3h-6l-10 8-9 7-4 2h-10l-7-4-4-5-1-3v-9l7-14 8-7z" fill="#068731"/>
<path transform="translate(764,373)" d="m0 0 10 1 45 8 12 3 3 4v10l-9 7-18 11-20 13-9 5-3-9 2-6 9-6v-8l-3-13-5-5-9-2-3-4zm31 18v7l3 9 5-2 15-9v-2l-14-3z" fill="#068731"/>
<path transform="translate(594,103)" d="m0 0 9 2 4 4v65l-3 1-7-3-2-2-2-14-10-5-7-2-7 1-8 7-6-1-6-3 2-4 15-16 7-8 12-13 7-8zm-1 17-10 11-4 5v2l9 4 6 1 1-2v-21z" fill="#068731"/>
<path transform="translate(653,716)" d="m0 0 4 2 1 4-16 12 2 5 5 1 6-4 5-3h8v4l-15 11 1 5 2 3 7-1 8-7 2-1h7l1 5-14 10-10 7-4-1-14-18-4-3v9l-3 6-8 6-5 3 5 11v5l-6 2-4-4-16-31-1-4 16-9 10-2 7 2 4-10 7-8 10-6zm-36 32-7 4-1 4 4 6 4 1 6-4 3-5-2-5z" fill="#068731"/>
<path transform="translate(761,555)" d="m0 0 4 1 44 44v7l-3 5-3 2h-13l-48-2-4-1 1-6 2-4 3-2 13-1 8-16v-8l-7-8 1-7zm15 30-5 9-1 5 1 1 20 2-2-4-9-10z" fill="#068731"/>
<path transform="translate(272,130)" d="m0 0 6 2 14 11 16 13 14 11 4 4-2 4-3 2h-8l-7-5v-2l-5 1-18 10-1 4 1 10-4 5-6 2-3-6-7-53v-6l5-5zm4 17 2 16 2 6 5-1 9-5-1-4-14-12z" fill="#068731"/>
<path transform="translate(156,566)" d="m0 0 8 2 7 6 7 14 1 4v10l-5 8-8 5-27 13-9 4h-4l-4-9 1-3 32-14 9-6 2-4v-7l-3-5v-2l-3-1h-9l-17 7-20 9-4-2-3-5v-5l30-13 13-5z" fill="#068731"/>
<path transform="translate(809,312)" d="m0 0h4l9 28 1 4v7l-3 6-7 6-6 2h-10l-6-3-5-6-8-18-11 3-6 2h-5l-4-9 4-4zm-5 15-14 5-1 3 5 13 5 4h7l4-4 1-9-4-11z" fill="#068731"/>
<path transform="translate(518,84)" d="m0 0h15l8 3 7 6 5 10-1 4-9 1-8-10-4-2h-9l-6 4-4 6-2 7v13l3 7 4 4 8 1 8-4 4-5 6 1 5 5-6 8-6 5-7 2h-8l-12-4-8-7-4-8-1-3v-17l4-12 6-8 9-6z" fill="#068731"/>
<path transform="translate(86,416)" d="m0 0 7 1 27 11 25 10 3 3v9l-5 5-51 16-7 2-2-4 1-7 4-4 41-13-23-9-17-6-4-4v-9z" fill="#068731"/>
<path transform="translate(242,695)" d="m0 0 4 1 7 6-1 5-9 21 11-7 10-7 6 1 5 5-1 4-7 11-8 10-7 6-2 1h-6l1-6 7-8 5-8-18 13-6 1-3-2v-7l5-11 2-6-6 5-7 9h-6l-2-5 11-13 11-14z" fill="#068731"/>
<path transform="translate(330,752)" d="m0 0 5 1 7 3-1 16-1 11 5-5 12-15 6 1 6 4-1 6-13 32-3 1-1-2-1-17-5 5-6 8-4 1-5-3-1-4 2-20h-2l-1 5-7 15-6-1-1-5 8-19 7-17z" fill="#068731"/>
<path transform="translate(413,776)" d="m0 0 10 2 4 5 3 17 2 2 3-5 4-13 3-4 9-1 4 2-2 28-1 12-4 2-3-6-2-18-8 22-3 2-5-1-3-5-3-13-1-4h-2v9l-2 12h-6l-2-3 2-24 2-17z" fill="#068731"/>
<path transform="translate(778,440)" d="m0 0h17l43 1 1 2v8l-2 2-49 1-1 4-1 24-1 2-6 1-3-1v-43z" fill="#068731"/>
<path transform="translate(684,693)" d="m0 0h9l4 4 2 4v8l-1 4 8 1 11 3v4l-4 3h-9l-7-2h-7l-3 2 1 5 6 7-1 6-4 2-13-14-9-11-6-7v-2l10-8 8-7zm-1 8-8 7-2 4 6 7h3l9-9-1-6-4-3z" fill="#068731"/>
<path transform="translate(288,731)" d="m0 0h6l4 5-1 13-4 28-2 5-5-5-7-14-3-2h-10l-3 2h-6l-2-2 1-5 11-8 17-14zm-2 11-1 3-4 2-4 5 4 4 4 1 3-5v-10z" fill="#068731"/>
<path transform="translate(712,660)" d="m0 0 5 1 13 11 6 5 6 10v7l-4 6-9 8-8 1-8-4-21-18 1-5 2-2 5 1 13 12 9 6 6-1 4-4v-6l-4-5-8-7-10-8-1-4z" fill="#068731"/>
<path transform="translate(522,774)" d="m0 0h7l-1 4-5 8-1 10 5 10 9 9-1 2-7 1-5-3-5-5v-2l-5 1-5 9-5 4h-6l1-5 5-9 1-4v-9l-3-6-9-8 1-2 6-1 7 4 5 4 3 1 2-6 4-6z" fill="#068731"/>
<path transform="translate(574,759)" d="m0 0h6l-4 12v8l4 8 7 6 7 4-1 3-7 2-6-3-7-5h-2l-5 14-3 2h-6l2-9 2-8v-8l-5-6-11-8 1-3 2-1h6l10 7h2l3-10z" fill="#068731"/>
<path transform="translate(477,78)" d="m0 0h9l3 2v11l-3 45-2 6h-9l-3-1 3-47 1-14z" fill="#068731"/>
<path transform="translate(136,479)" d="m0 0h13l1 11-4 2-58 4-2-3v-10l21-2z" fill="#068731"/>
<path transform="translate(177,207)" d="m0 0 4 1 10 9 11 9 12 11 8 7 3 2-1 5-5 5-5-1-13-12-11-9-13-12-6-5 1-4z" fill="#068731"/>
<path transform="translate(383,770)" d="m0 0h10l8 5 5 8v4h-6l-5-5-4-3h-6l-5 3-3 6-1 4v8l3 5 5 3 6-2 6-4 5 3-1 4-5 5-3 2h-12l-6-3-5-5-3-6v-13l4-9 6-7z" fill="#068731"/>
<path transform="translate(463,779)" d="m0 0 7 1v35h21l1 3-5 5-4 1-19-1-3-1v-41z" fill="#068731"/>
<path transform="translate(209,660)" d="m0 0 4 2 1 5-13 12-11 9 1 5 8 10 1 6-4 2-5-5-12-14-2-3 1-4 11-9 13-11z" fill="#068731"/>
<path transform="translate(536,770)" d="m0 0 5 1 3 10 6 26v5l-2 2h-6l-4-15-6-26z" fill="#068731"/>
<path transform="translate(234,685)" d="m0 0 4 3-1 5-8 7-10 9-11 9h-4l-1-5 10-9 15-14z" fill="#068731"/>
<path transform="translate(300,778)" d="m0 0 6 1 1 5-2 3h-5l-2-2v-5z" fill="#068731"/>
<path transform="translate(600,787)" d="m0 0h6l1 1v6l-5 2-4-4 1-4z" fill="#068731"/>
<path transform="translate(173,644)" d="m0 0h5l2 3v4l-3 2-4-1-2-2 1-5z" fill="#068731"/>
<path transform="translate(746,645)" d="m0 0 5 1 1 5-2 3-6-1-1-5z" fill="#068731"/>
<path transform="translate(697,660)" d="m0 0h2l1 8-2 5-4-3-1-5z" fill="#068731"/>
</svg>
